<svg width="1500" height="500" version="1.1" xmlns="http://www.w3.org/2000/svg" desc="Created with imagetracer.js version 1.2.6" ><path fill="rgb(249,249,249)" stroke="rgb(249,249,249)" stroke-width="1" opacity="0.9450980392156862" d="M 397.5 182 L 533.5 182 L 535 183.5 L 535 275.5 L 521.5 289 Q 509.7 298.2 493.5 303 L 483.5 305 L 464.5 305 Q 435.9 300.1 420 282.5 L 414 274.5 L 414 272.5 L 417.5 271 L 433.5 279 L 446.5 280 Q 468.5 276 480 261.5 Q 489 254 489 237.5 L 486 225.5 L 476.5 212 L 467.5 205 Q 456 198 441.5 194 L 426.5 191 L 402.5 189 L 396 186.5 Q 395.3 182.8 397.5 182 Z " /><path fill="rgb(249,249,249)" stroke="rgb(249,249,249)" stroke-width="1" opacity="0.9450980392156862" d="M 416.5 195 L 433.5 196 L 452.5 202 Q 468 209.5 478 222.5 Q 480.8 224.5 480 229 L 476.5 229 Q 469.2 223.3 458.5 221 L 444.5 221 Q 424.6 225.6 414 239.5 Q 404 247.5 406 267.5 Q 409.2 281.3 418.5 289 L 429.5 297 L 439.5 302 L 454.5 307 L 471.5 310 L 478.5 310 L 479.5 311 L 495.5 312 L 498 313 Q 499.3 317.6 496.5 319 L 361.5 319 L 360 317.5 L 360 224.5 L 365.5 218 Q 375.4 208.4 388.5 202 L 399.5 198 L 416.5 195 Z " /><path fill="rgb(249,249,249)" stroke="rgb(249,249,249)" stroke-width="1" opacity="0.9450980392156862" d="M 558 204 L 596.5 204 Q 597.8 206.3 602.5 205 Q 613.8 207.8 620 215.5 Q 626.1 222.9 625 237.5 Q 623 248 616.5 254 Q 610.8 259.3 601.5 261 L 572 262 L 572 295 L 558.5 295 L 557 293.5 L 557 206.5 L 558 204 Z M 572 218 L 572 248 L 597 248 L 606 244 L 609 239 Q 611 228 607 224 L 598 218 L 572 218 Z " /><path fill="rgb(249,249,249)" stroke="rgb(249,249,249)" stroke-width="1" opacity="0.9450980392156862" d="M 827 212 L 840.5 212 L 842 213.5 L 842 227 L 858.5 227 L 860 228.5 L 860 237.5 L 858.5 239 L 842 239 L 842 278.5 L 844.5 282 L 846.5 283 L 859 283 L 859 295 L 841.5 295 Q 833.9 293.1 830 287.5 L 827 279.5 L 827 239 L 817 239 L 817 227 L 827 227 L 827 212 Z " /><path fill="rgb(249,249,249)" stroke="rgb(249,249,249)" stroke-width="1" opacity="0.9450980392156862" d="M 649.5 226 Q 674.8 222.8 683 236.5 L 687 247.5 L 687 281.5 L 688.5 283 L 694 284 L 694 295 L 682.5 295 L 675 290.5 L 673.5 288 Q 666 297.5 648.5 297 L 636.5 293 L 630 286.5 Q 626.7 281.8 628 272.5 Q 629.8 265.3 635.5 262 L 644.5 258 L 672 253 Q 673.4 243.5 667.5 240 Q 663.2 236.3 653.5 238 L 646 243.5 L 644 249 L 629 248 Q 630.6 236.9 638.5 231 L 649.5 226 Z M 671 264 L 648 269 Q 641 271 643 280 L 651 285 Q 660 287 665 283 L 670 278 L 673 268 Q 675 263 671 264 Z " /><path fill="rgb(249,249,249)" stroke="rgb(249,249,249)" stroke-width="1" opacity="0.9450980392156862" d="M 776.5 226 Q 802 223 810 237.5 L 814 246.5 L 811.5 249 L 799.5 249 L 792.5 240 Q 788.8 236.7 780.5 238 L 773 243.5 Q 771.5 251.5 776.5 253 L 784.5 256 L 789.5 256 L 800.5 259 L 811 265.5 Q 815.5 270 815 279.5 Q 813.5 287 808.5 291 L 797.5 296 L 782.5 297 L 766.5 292 L 759 284.5 Q 755.2 280.2 756 273 L 769.5 272 L 776.5 282 Q 781.5 286 792.5 284 L 799 279.5 L 800 275.5 L 795.5 270 L 770.5 264 Q 763.8 261.8 760 256.5 Q 757 252.5 757 245.5 L 758 240.5 L 763.5 232 L 776.5 226 Z " /><path fill="rgb(249,249,249)" stroke="rgb(249,249,249)" stroke-width="1" opacity="0.9450980392156862" d="M 928.5 226 Q 953.3 223.2 961 237.5 L 967 251.5 L 967 264.5 L 965.5 266 L 920 266 Q 919.9 277.2 927.5 282 Q 931.9 285.1 940.5 284 L 950 277.5 L 951 274 L 966 275 L 965 280.5 L 958.5 289 Q 950.2 297.7 932.5 297 Q 918.4 294.6 911 285.5 Q 902.5 275 904 254.5 L 908 241.5 L 918.5 230 L 928.5 226 Z M 934 238 L 927 241 L 920 251 L 921 254 L 952 254 L 949 245 Q 945 237 934 238 Z " /><path fill="rgb(249,249,249)" stroke="rgb(249,249,249)" stroke-width="1" opacity="0.9450980392156862" d="M 995.5 226 L 1012.5 226 Q 1022.6 228.4 1028 235.5 L 1033 249.5 L 1033 281.5 L 1034.5 283 L 1040 284 L 1040 293.5 L 1038.5 295 Q 1025.3 297.3 1021 290.5 Q 1021.8 288.3 1019.5 289 L 1018.5 288 L 1014.5 292 Q 1007.7 297.7 994.5 297 L 986.5 295 L 977 288.5 Q 972.2 283.3 974 271.5 L 979.5 263 L 993.5 257 L 1018 253 Q 1018.8 243.9 1013.5 240 Q 1008.8 236.2 998.5 238 L 991 244.5 L 990 249 L 975 248 Q 975.9 236.2 984.5 231 L 995.5 226 Z M 1017 264 L 1000 267 L 992 270 L 989 274 L 990 282 L 996 285 Q 1007 287 1012 282 Q 1016 278 1018 272 L 1018 265 L 1017 264 Z " /><path fill="rgb(249,249,249)" stroke="rgb(249,249,249)" stroke-width="1" opacity="0.9450980392156862" d="M 1072.5 226 Q 1089.3 223.7 1095 232.5 L 1097 237 L 1100 235.5 L 1102 231 L 1111.5 226 L 1124.5 226 Q 1132.2 227.8 1136 233.5 L 1140 242.5 L 1140 295 L 1126.5 295 L 1126 294.5 L 1126 250.5 L 1124 243.5 L 1119.5 239 L 1111.5 238 Q 1105.8 239.3 1103 243.5 L 1100 253.5 L 1100 295 L 1087.5 295 L 1087 294.5 L 1087 254.5 L 1085 244.5 L 1081.5 240 Q 1078.5 237 1071.5 238 L 1063 244.5 L 1061 250.5 L 1061 295 L 1047.5 295 L 1046 293.5 L 1046 228.5 L 1047.5 227 L 1058.5 227 L 1060 228.5 Q 1058.8 234.6 1061.5 234 L 1064.5 230 L 1072.5 226 Z " /><path fill="rgb(249,249,249)" stroke="rgb(249,249,249)" stroke-width="1" opacity="0.9450980392156862" d="M 692 227 L 705.5 227 L 706 228.5 L 723 277 Q 725.7 278.1 725 275.5 L 742 227 L 755.5 227 L 756 230.5 L 730 303.5 L 723.5 312 L 718.5 314 L 703 314 L 703 302 L 714.5 302 Q 718.7 299.1 719 293 L 715 293 L 715 291.5 L 692 231.5 L 692 227 Z " /><path fill="rgb(249,249,249)" stroke="rgb(249,249,249)" stroke-width="1" opacity="0.9450980392156862" d="M 868 227 L 881 227 L 881 231.5 L 883.5 233 Q 888 225 902.5 227 L 904 228.5 L 904 237.5 L 902.5 239 L 890.5 240 L 884 245.5 L 882 251.5 L 882 295 L 868.5 295 L 868 294.5 L 868 227 Z " /><path fill="rgb(0,0,0)" stroke="rgb(0,0,0)" stroke-width="1" opacity="0" d="M 0 0 L 1500 0 L 1500 500 L 0 500 L 0 0 Z M 398 182 Q 395 183 396 187 L 403 189 L 427 191 L 442 194 Q 456 198 468 205 L 477 212 L 486 226 L 489 238 Q 489 254 480 262 Q 468 276 447 280 L 434 279 L 418 271 L 414 273 L 414 275 L 420 283 Q 436 300 465 305 L 484 305 L 494 303 Q 510 298 522 289 L 535 276 L 535 184 L 534 182 L 398 182 Z M 417 195 L 400 198 L 389 202 Q 375 208 366 218 L 360 225 L 360 318 L 362 319 L 497 319 Q 499 318 498 313 L 496 312 L 480 311 L 479 310 L 472 310 L 455 307 L 440 302 L 430 297 L 419 289 Q 409 281 406 268 Q 404 248 414 240 Q 425 226 445 221 L 459 221 Q 469 223 477 229 L 480 229 Q 481 225 478 223 Q 468 210 453 202 L 434 196 L 417 195 Z M 558 204 L 557 207 L 557 294 L 559 295 L 572 295 L 572 262 L 602 261 Q 611 259 617 254 Q 623 248 625 238 Q 626 223 620 216 Q 614 208 603 205 Q 598 206 597 204 L 558 204 Z M 827 212 L 827 227 L 817 227 L 817 239 L 827 239 L 827 280 L 830 288 Q 834 293 842 295 L 859 295 L 859 283 L 847 283 L 845 282 L 842 279 L 842 239 L 859 239 L 860 238 L 860 229 L 859 227 L 842 227 L 842 214 L 841 212 L 827 212 Z M 650 226 L 639 231 Q 631 237 629 248 L 644 249 L 646 244 L 654 238 Q 663 236 668 240 Q 673 243 672 253 L 645 258 L 636 262 Q 630 265 628 273 Q 627 282 630 287 L 637 293 L 649 297 Q 666 298 674 288 L 675 291 L 683 295 L 694 295 L 694 284 L 689 283 L 687 282 L 687 248 L 683 237 Q 675 223 650 226 Z M 777 226 L 764 232 L 758 241 L 757 246 Q 757 252 760 257 Q 764 262 771 264 L 796 270 L 800 276 L 799 280 L 793 284 Q 781 286 777 282 L 770 272 L 756 273 Q 755 280 759 285 L 767 292 L 783 297 L 798 296 L 809 291 Q 814 287 815 280 Q 815 270 811 266 L 801 259 L 790 256 L 785 256 L 777 253 Q 771 252 773 244 L 781 238 Q 789 237 793 240 L 800 249 L 812 249 L 814 247 L 810 238 Q 802 223 777 226 Z M 929 226 L 919 230 L 908 242 L 904 255 Q 903 275 911 286 Q 918 295 933 297 Q 950 298 959 289 L 965 281 L 966 275 L 951 274 L 950 278 L 941 284 Q 932 285 928 282 Q 920 277 920 266 L 966 266 L 967 265 L 967 252 L 961 238 Q 953 223 929 226 Z M 996 226 L 985 231 Q 976 236 975 248 L 990 249 L 991 245 L 999 238 Q 1009 236 1014 240 Q 1019 244 1018 253 L 994 257 L 980 263 L 974 272 Q 972 283 977 289 L 987 295 L 995 297 Q 1008 298 1015 292 L 1019 288 L 1020 289 Q 1022 288 1021 291 Q 1025 297 1039 295 L 1040 294 L 1040 284 L 1035 283 L 1033 282 L 1033 250 L 1028 236 Q 1023 228 1013 226 L 996 226 Z M 1073 226 L 1065 230 L 1062 234 Q 1059 235 1060 229 L 1059 227 L 1048 227 L 1046 229 L 1046 294 L 1048 295 L 1061 295 L 1061 251 L 1063 245 L 1072 238 Q 1079 237 1082 240 L 1085 245 L 1087 255 L 1087 295 L 1088 295 L 1100 295 L 1100 254 L 1103 244 Q 1106 239 1112 238 L 1120 239 L 1124 244 L 1126 251 L 1126 295 L 1127 295 L 1140 295 L 1140 243 L 1136 234 Q 1132 228 1125 226 L 1112 226 L 1102 231 L 1100 236 L 1097 237 L 1095 233 Q 1089 224 1073 226 Z M 692 227 L 692 232 L 715 292 L 715 293 L 719 293 Q 719 299 715 302 L 703 302 L 703 314 L 719 314 L 724 312 L 730 304 L 756 231 L 756 227 L 742 227 L 725 276 Q 726 278 723 277 L 706 229 L 706 227 L 692 227 Z M 868 227 L 868 295 L 869 295 L 882 295 L 882 252 L 884 246 L 891 240 L 903 239 L 904 238 L 904 229 L 903 227 Q 888 225 884 233 L 881 232 L 881 227 L 868 227 Z " /><path fill="rgb(0,0,0)" stroke="rgb(0,0,0)" stroke-width="1" opacity="0" d="M 572 218 L 597.5 218 L 607 223.5 Q 610.8 228.2 609 238.5 L 606 244 L 596.5 248 L 572 248 L 572 218 Z " /><path fill="rgb(0,0,0)" stroke="rgb(0,0,0)" stroke-width="1" opacity="0" d="M 933.5 238 Q 945.2 237.3 949 244.5 L 952 254 L 920.5 254 L 920 250.5 L 926.5 241 L 933.5 238 Z " /><path fill="rgb(0,0,0)" stroke="rgb(0,0,0)" stroke-width="1" opacity="0" d="M 670.5 264 Q 674.7 262.7 673 267.5 L 670 277.5 L 664.5 283 Q 660.2 286.7 650.5 285 L 643 279.5 Q 641.5 270.5 647.5 269 L 670.5 264 Z " /><path fill="rgb(0,0,0)" stroke="rgb(0,0,0)" stroke-width="1" opacity="0" d="M 1016.5 264 L 1018 264.5 L 1018 271.5 Q 1016.5 278.5 1011.5 282 Q 1006.7 286.7 995.5 285 L 990 281.5 L 989 273.5 L 991.5 270 L 999.5 267 L 1016.5 264 Z " /></svg>