<svg width="1500" height="500" version="1.1" xmlns="http://www.w3.org/2000/svg" desc="Created with imagetracer.js version 1.2.6" ><path fill="rgb(13,31,54)" stroke="rgb(13,31,54)" stroke-width="1" opacity="1" d="M 398.5 182 L 534 182 L 534 276.5 Q 521.9 290.9 503.5 299 L 486.5 304 L 468.5 305 L 446.5 300 Q 429.7 293.3 419 280.5 L 415 274.5 L 415 272 L 418.5 272 Q 425.5 278 436.5 280 L 449.5 280 Q 471.8 274.8 483 258.5 L 488 249.5 L 489 233.5 Q 485 216.5 472.5 208 Q 459.9 199.1 443.5 194 L 421.5 190 L 398.5 188 L 397 186.5 Q 396.3 182.8 398.5 182 Z " /><path fill="rgb(13,31,54)" stroke="rgb(13,31,54)" stroke-width="1" opacity="1" d="M 410.5 196 L 430.5 196 L 446.5 200 Q 463.9 206.6 475 219.5 L 480 227.5 L 477.5 229 L 460.5 221 L 449.5 220 L 438.5 222 L 429.5 226 Q 418.1 232.1 411 242.5 L 406 252.5 L 405 263.5 L 410 279.5 L 422.5 293 Q 435.4 302.1 452.5 307 L 468.5 310 L 492.5 312 L 498 314.5 Q 498.5 318.5 495.5 319 L 362.5 319 L 360 318 L 360 224.5 L 369.5 215 L 389.5 202 L 410.5 196 Z " /><path fill="rgb(13,31,54)" stroke="rgb(13,31,54)" stroke-width="1" opacity="1" d="M 558 205 L 600.5 205 Q 613.7 207.3 620 216.5 Q 626.3 224.2 624 240.5 Q 621.6 250.1 614.5 255 L 607.5 259 L 599.5 261 L 572 261 L 572 293.5 L 570.5 295 L 558.5 295 L 558 294.5 L 558 205 Z M 574 217 L 572 219 L 572 248 L 599 248 L 604 246 Q 608 243 610 237 Q 611 229 608 225 L 600 218 L 574 217 Z " /><path fill="rgb(13,31,54)" stroke="rgb(13,31,54)" stroke-width="1" opacity="1" d="M 828 212 L 841 212 L 841 227 L 857.5 227 L 859 228.5 L 859 239 L 841 239 L 841 277.5 L 843 282 Q 848.5 285.4 859 284 L 859 293.5 L 857.5 295 Q 839.7 297.3 832 289.5 L 828 282.5 L 828 240.5 L 826.5 239 L 818.5 239 L 817 237.5 L 817 228.5 L 818.5 228 L 819.5 227 L 828 227 L 828 212 Z " /><path fill="rgb(13,31,54)" stroke="rgb(13,31,54)" stroke-width="1" opacity="1" d="M 652.5 226 L 668.5 227 L 680 233 L 686 245.5 Q 684.8 250.2 687 251.5 L 687 282.5 L 688.5 284 Q 693 283 694 285.5 L 694 293.5 L 692.5 295 L 680.5 294 L 675 289.5 Q 675.8 286.9 672.5 288 Q 667.6 293.6 659.5 296 L 645.5 296 Q 636.9 294.1 632 288.5 Q 627.5 284 628 274.5 L 631 266.5 L 633.5 264 L 642.5 259 L 673 253 Q 673.4 242.9 666.5 239 Q 662.9 236.1 655.5 237 Q 648.9 237.9 646 242.5 L 642.5 249 L 640.5 248 L 630 248 Q 630.9 236.1 639.5 231 L 652.5 226 Z M 668 264 L 647 269 Q 641 271 643 281 Q 646 285 653 286 L 658 286 L 666 283 Q 671 279 673 271 L 673 264 L 668 264 Z " /><path fill="rgb(13,31,54)" stroke="rgb(13,31,54)" stroke-width="1" opacity="1" d="M 778.5 226 Q 799.6 224.4 808 235.5 L 813 244.5 L 813 248 L 800.5 249 L 793.5 240 L 783.5 237 L 776.5 239 L 773 242.5 L 772 248.5 L 774.5 252 L 779.5 255 L 801.5 260 Q 808.3 262.3 812 267.5 Q 815.8 272.2 814 282.5 L 807.5 291 Q 797.7 298.2 778.5 296 Q 767.2 293.8 761 286.5 Q 756.8 282.2 756 274.5 L 757.5 273 L 769.5 273 L 775.5 282 L 783.5 285 L 790.5 285 L 796.5 283 L 799 280.5 L 800 274.5 L 797.5 271 L 790.5 268 Q 778.4 267.1 769.5 263 L 759 254.5 L 758 242.5 Q 759.9 234.9 765.5 231 L 778.5 226 Z " /><path fill="rgb(13,31,54)" stroke="rgb(13,31,54)" stroke-width="1" opacity="1" d="M 930.5 226 Q 950.9 224.6 959 235.5 Q 968.2 245.6 967 265 L 919.5 265 L 919 268.5 Q 920.5 277.5 926.5 282 L 930.5 284 L 937.5 285 L 944.5 283 L 951 276.5 L 951.5 275 L 964.5 275 Q 967.3 276.3 965 277.5 Q 962.9 285.9 956.5 290 Q 948.2 298.2 929.5 296 Q 917.2 293.3 911 284.5 L 906 274.5 L 904 259.5 Q 906.8 257.8 905 251.5 L 908 242.5 L 916.5 232 L 930.5 226 Z M 932 238 L 928 240 Q 921 244 919 254 L 921 255 L 952 255 L 952 250 L 949 244 Q 945 236 932 238 Z " /><path fill="rgb(13,31,54)" stroke="rgb(13,31,54)" stroke-width="1" opacity="1" d="M 998.5 226 Q 1020.3 224.2 1028 236.5 L 1032 246.5 L 1032 280.5 L 1034.5 284 L 1039 284 L 1039 295 L 1026.5 294 L 1019.5 288 L 1017.5 288 Q 1011 298.5 991.5 296 Q 981.8 294.2 977 287.5 Q 972.5 283 974 272.5 Q 975.5 266 980.5 263 L 988.5 259 L 1015.5 254 L 1019 251.5 L 1017 243.5 L 1012.5 239 Q 1008.5 236 1000.5 237 Q 994 238.5 991 243.5 L 990 248 L 987.5 249 L 986.5 248 L 976.5 248 L 975 246.5 Q 977.8 236.3 985.5 231 L 990.5 228 L 998.5 226 Z M 1014 264 L 993 269 L 988 275 L 989 281 Q 992 285 999 286 Q 1008 286 1013 282 L 1018 274 L 1019 269 Q 1021 261 1014 264 Z " /><path fill="rgb(13,31,54)" stroke="rgb(13,31,54)" stroke-width="1" opacity="1" d="M 1074.5 226 Q 1090.7 224.8 1096 234.5 L 1097.5 237 Q 1100.8 238.1 1100 235.5 L 1104.5 230 Q 1110.5 224.5 1123.5 226 Q 1131.9 228.2 1136 234.5 L 1140 245.5 L 1140 293.5 L 1138.5 295 L 1127.5 295 L 1126 293.5 L 1126 247.5 Q 1124.8 241.8 1120.5 239 Q 1117 236.5 1109.5 238 L 1104 241 L 1100 250.5 L 1100 293.5 L 1098.5 295 L 1087.5 295 L 1087 294.5 L 1087 250.5 L 1085 243.5 L 1079.5 238 Q 1067.7 236.2 1064 242.5 L 1061 248.5 L 1061 293.5 L 1059.5 295 L 1047.5 295 L 1047 294.5 L 1047 228.5 L 1048.5 227 L 1057.5 227 L 1060.5 234 Q 1065.5 228 1074.5 226 Z " /><path fill="rgb(13,31,54)" stroke="rgb(13,31,54)" stroke-width="1" opacity="1" d="M 693.5 227 L 704.5 227 L 706 228.5 L 723 278 L 726 276.5 L 742 228 Q 745.6 225.7 754.5 227 L 756 229.5 L 729 304.5 L 722.5 312 Q 716 315.5 704.5 314 L 703 312.5 L 703 303 Q 712.6 304.8 717 300.5 L 719 293 L 715 291.5 L 692 228.5 L 693.5 227 Z " /><path fill="rgb(13,31,54)" stroke="rgb(13,31,54)" stroke-width="1" opacity="1" d="M 869.5 227 Q 877.7 225.9 881 228 Q 878.6 235.1 885 233 Q 883.9 230.3 886.5 231 L 890.5 228 L 901.5 227 L 903 228.5 L 903 239 L 891.5 239 L 884 244.5 L 882 249.5 L 882 293.5 L 880.5 295 L 868.5 295 L 868 294.5 L 868 228.5 L 869.5 227 Z " /><path fill="rgb(249,249,249)" stroke="rgb(249,249,249)" stroke-width="1" opacity="1" d="M 0 0 L 1500 0 L 1500 500 L 0 500 L 0 0 Z M 399 182 Q 396 183 397 187 L 399 188 L 422 190 L 444 194 Q 460 199 473 208 Q 485 217 489 234 L 488 250 L 483 259 Q 472 275 450 280 L 437 280 Q 426 278 419 272 L 415 272 L 415 275 L 419 281 Q 430 293 447 300 L 469 305 L 487 304 L 504 299 Q 522 291 534 277 L 534 182 L 399 182 Z M 411 196 L 390 202 L 370 215 L 360 225 L 360 318 L 363 319 L 496 319 Q 499 319 498 315 L 493 312 L 469 310 L 453 307 Q 435 302 423 293 L 410 280 L 405 264 L 406 253 L 411 243 Q 418 232 430 226 L 439 222 L 450 220 L 461 221 L 478 229 L 480 228 L 475 220 Q 464 207 447 200 L 431 196 L 411 196 Z M 558 205 L 558 295 L 559 295 L 571 295 L 572 294 L 572 261 L 600 261 L 608 259 L 615 255 Q 622 250 624 241 Q 626 224 620 217 Q 614 207 601 205 L 558 205 Z M 828 212 L 828 227 L 820 227 L 819 228 L 817 229 L 817 238 L 819 239 L 827 239 L 828 241 L 828 283 L 832 290 Q 840 297 858 295 L 859 294 L 859 284 Q 848 285 843 282 L 841 278 L 841 239 L 859 239 L 859 229 L 858 227 L 841 227 L 841 212 L 828 212 Z M 653 226 L 640 231 Q 631 236 630 248 L 641 248 L 643 249 L 646 243 Q 649 238 656 237 Q 663 236 667 239 Q 673 243 673 253 L 643 259 L 634 264 L 631 267 L 628 275 Q 628 284 632 289 Q 637 294 646 296 L 660 296 Q 668 294 673 288 Q 676 287 675 290 L 681 294 L 693 295 L 694 294 L 694 286 Q 693 283 689 284 L 687 283 L 687 252 Q 685 250 686 246 L 680 233 L 669 227 L 653 226 Z M 779 226 L 766 231 Q 760 235 758 243 L 759 255 L 770 263 Q 778 267 791 268 L 798 271 L 800 275 L 799 281 L 797 283 L 791 285 L 784 285 L 776 282 L 770 273 L 758 273 L 756 275 Q 757 282 761 287 Q 767 294 779 296 Q 798 298 808 291 L 814 283 Q 816 272 812 268 Q 808 262 802 260 L 780 255 L 775 252 L 772 249 L 773 243 L 777 239 L 784 237 L 794 240 L 801 249 L 813 248 L 813 245 L 808 236 Q 800 224 779 226 Z M 931 226 L 917 232 L 908 243 L 905 252 Q 907 258 904 260 L 906 275 L 911 285 Q 917 293 930 296 Q 948 298 957 290 Q 963 286 965 278 Q 967 276 965 275 L 952 275 L 951 277 L 945 283 L 938 285 L 931 284 L 927 282 Q 920 278 919 269 L 920 265 L 967 265 Q 968 246 959 236 Q 951 225 931 226 Z M 999 226 L 991 228 L 986 231 Q 978 236 975 247 L 977 248 L 987 248 L 988 249 L 990 248 L 991 244 Q 994 239 1001 237 Q 1009 236 1013 239 L 1017 244 L 1019 252 L 1016 254 L 989 259 L 981 263 Q 976 266 974 273 Q 973 283 977 288 Q 982 294 992 296 Q 1011 298 1018 288 L 1020 288 L 1027 294 L 1039 295 L 1039 284 L 1035 284 L 1032 281 L 1032 247 L 1028 237 Q 1020 224 999 226 Z M 1075 226 Q 1066 228 1061 234 L 1058 227 L 1049 227 L 1047 229 L 1047 295 L 1048 295 L 1060 295 L 1061 294 L 1061 249 L 1064 243 Q 1068 236 1080 238 L 1085 244 L 1087 251 L 1087 295 L 1088 295 L 1099 295 L 1100 294 L 1100 251 L 1104 241 L 1110 238 Q 1117 237 1121 239 Q 1125 242 1126 248 L 1126 294 L 1128 295 L 1139 295 L 1140 294 L 1140 246 L 1136 235 Q 1132 228 1124 226 Q 1110 224 1105 230 L 1100 236 Q 1101 238 1098 237 L 1096 235 Q 1091 225 1075 226 Z M 694 227 L 692 229 L 715 292 L 719 293 L 717 301 Q 713 305 703 303 L 703 313 L 705 314 Q 716 316 723 312 L 729 305 L 756 230 L 755 227 Q 746 226 742 228 L 726 277 L 723 278 L 706 229 L 705 227 L 694 227 Z M 870 227 L 868 229 L 868 295 L 869 295 L 881 295 L 882 294 L 882 250 L 884 245 L 892 239 L 903 239 L 903 229 L 902 227 L 891 228 L 887 231 Q 884 230 885 233 Q 879 235 881 228 Q 878 226 870 227 Z " /><path fill="rgb(249,249,249)" stroke="rgb(249,249,249)" stroke-width="1" opacity="1" d="M 573.5 217 L 599.5 218 L 608 224.5 Q 611 228.5 610 236.5 Q 608.5 243 603.5 246 L 598.5 248 L 572 248 L 572 218.5 L 573.5 217 Z " /><path fill="rgb(249,249,249)" stroke="rgb(249,249,249)" stroke-width="1" opacity="1" d="M 931.5 238 Q 945.1 235.9 949 243.5 L 952 249.5 L 952 255 L 920.5 255 L 919 253.5 Q 920.8 244.3 927.5 240 L 931.5 238 Z " /><path fill="rgb(249,249,249)" stroke="rgb(249,249,249)" stroke-width="1" opacity="1" d="M 667.5 264 L 673 264 L 673 270.5 Q 671.3 278.8 665.5 283 L 657.5 286 L 652.5 286 Q 645.9 285.1 643 280.5 Q 641 271 646.5 269 L 667.5 264 Z " /><path fill="rgb(249,249,249)" stroke="rgb(249,249,249)" stroke-width="1" opacity="1" d="M 1013.5 264 Q 1021.3 261.3 1019 268.5 L 1018 273.5 L 1013 282 Q 1008.5 286.2 998.5 286 Q 991.9 285.1 989 280.5 L 988 274.5 L 992.5 269 L 1013.5 264 Z " /></svg>