<svg width="1500" height="500" version="1.1" xmlns="http://www.w3.org/2000/svg" desc="Created with imagetracer.js version 1.2.6" ><path fill="rgb(0,19,44)" stroke="rgb(0,19,44)" stroke-width="1" opacity="0.9450980392156862" d="M 397 182 L 533.5 182 L 534 183.5 L 535 184.5 L 535 274.5 L 524.5 286 Q 514.6 294.6 501.5 300 Q 487.9 305.9 467.5 305 L 466.5 304 L 455.5 303 L 439.5 297 Q 426.8 290.2 418 279.5 Q 414.1 277.4 415 272 L 418.5 272 L 432.5 279 L 448.5 280 Q 471.7 275.2 483 258.5 Q 490 250.5 489 234.5 Q 485.6 217.4 473.5 209 L 454.5 198 L 439.5 193 L 422.5 191 L 421.5 190 L 414.5 190 L 413.5 189 L 398.5 188 L 397 186.5 L 397 182 Z " /><path fill="rgb(0,19,44)" stroke="rgb(0,19,44)" stroke-width="1" opacity="0.9450980392156862" d="M 409.5 196 L 430.5 196 L 449.5 201 Q 465.4 208.1 476 220.5 L 480 227.5 L 476.5 229 Q 469.9 223.1 459.5 221 L 442.5 221 Q 422.7 226.7 412 241.5 Q 403.5 249.5 406 268.5 L 409 277.5 L 421.5 292 Q 434.8 302.2 453.5 307 L 469.5 310 L 493.5 312 L 498 314.5 Q 499.5 318.9 496.5 318 L 495.5 319 L 361.5 319 L 360 317.5 L 360 224.5 Q 377.1 202.6 409.5 196 Z " /><path fill="rgb(0,19,44)" stroke="rgb(0,19,44)" stroke-width="1" opacity="0.9450980392156862" d="M 558 205 L 600.5 205 L 610.5 208 L 620 216.5 L 624 224.5 L 625 234.5 L 622 246.5 L 614.5 255 L 600.5 261 L 572 261 L 572 295 L 558 295 L 558 205 Z M 572 218 L 572 248 L 599 248 L 604 246 Q 609 243 610 236 Q 611 228 608 225 Q 605 220 599 218 L 572 218 Z " /><path fill="rgb(0,19,44)" stroke="rgb(0,19,44)" stroke-width="1" opacity="0.9450980392156862" d="M 828.5 212 L 841 212 L 841 227 L 859 227 L 859 239 L 842.5 239 L 841 240.5 L 841 275.5 L 843 282 L 845.5 283 L 857.5 283 L 859 284.5 L 859 295 L 843.5 295 L 836.5 293 L 831 288.5 L 827 277.5 L 827 239 L 818.5 239 L 817 237.5 L 817 228.5 L 818.5 227 L 827 227 L 827 213.5 L 828.5 212 Z " /><path fill="rgb(0,19,44)" stroke="rgb(0,19,44)" stroke-width="1" opacity="0.9450980392156862" d="M 651.5 226 L 669.5 227 L 681 234.5 L 685 241.5 L 687 249.5 L 687 283 L 694 285.5 L 694 293.5 L 692.5 295 L 680.5 294 L 672.5 288 Q 667.6 293.6 659.5 296 L 645.5 296 Q 636.1 293.9 631 287.5 Q 626.9 283.1 628 273.5 Q 629.6 266.6 634.5 263 L 645.5 258 L 673 253 Q 673.4 242.9 666.5 239 L 656.5 237 L 648.5 240 L 646 242.5 L 642.5 249 L 630 248 Q 630.9 236.1 639.5 231 L 651.5 226 Z M 669 264 L 647 269 L 643 274 L 644 282 L 654 286 L 662 285 L 667 282 Q 672 278 673 270 Q 676 262 669 264 Z " /><path fill="rgb(0,19,44)" stroke="rgb(0,19,44)" stroke-width="1" opacity="0.9450980392156862" d="M 777.5 226 Q 800.8 223.7 809 236.5 Q 813 240.8 813 248 L 799 249 Q 798.1 243.1 793.5 240 Q 789.2 236.3 779.5 238 L 773 242.5 L 772 247.5 L 776.5 253 L 783.5 256 Q 795.9 256.5 804.5 261 L 812 267.5 Q 815.8 272.2 814 282.5 L 807.5 291 Q 798 298.5 778.5 296 Q 766.4 293.6 760 285.5 L 756 274.5 L 757.5 273 L 771 273 L 774 281 Q 778.8 285.4 789.5 285 L 799 280.5 L 800 274.5 L 797.5 271 L 790.5 268 L 771.5 264 L 761 257.5 Q 756.3 252.7 758 241.5 Q 760.3 234.8 765.5 231 L 777.5 226 Z " /><path fill="rgb(0,19,44)" stroke="rgb(0,19,44)" stroke-width="1" opacity="0.9450980392156862" d="M 929.5 226 Q 952.1 223.9 960 236.5 Q 968.1 246.7 967 265 L 920.5 265 L 919 266.5 L 920 272.5 L 925.5 281 Q 930.3 285.7 941.5 284 L 951 276.5 L 952.5 274 L 964.5 275 L 966 276.5 Q 963.2 285.2 956.5 290 L 944.5 296 L 928.5 296 Q 916.9 293.1 911 284.5 Q 903.3 275.2 904 257.5 L 907 244.5 Q 910.3 236.8 916.5 232 L 929.5 226 Z M 933 238 L 928 240 Q 921 244 919 254 L 921 255 L 952 255 Q 953 247 948 243 Q 944 237 933 238 Z " /><path fill="rgb(0,19,44)" stroke="rgb(0,19,44)" stroke-width="1" opacity="0.9450980392156862" d="M 997.5 226 Q 1020.1 223.9 1028 236.5 L 1032 245.5 L 1032 253.5 L 1033 254.5 L 1033 282.5 L 1034.5 284 L 1039 284 L 1039 295 L 1029.5 295 Q 1022.7 293.3 1019.5 288 L 1017.5 288 Q 1011 299 990.5 296 Q 981.4 294.1 977 287.5 Q 972.5 283 974 272.5 Q 975.8 265.3 981.5 262 L 991.5 258 L 1018 253 Q 1019.5 242.5 1012.5 239 L 1006.5 237 L 1001.5 237 Q 994.9 237.9 992 242.5 L 988.5 249 L 976.5 248 L 975 246.5 Q 976.9 237.9 982.5 233 Q 988.2 227.7 997.5 226 Z M 1015 264 L 993 269 L 988 276 L 989 281 L 993 284 L 1000 286 L 1010 284 L 1016 278 L 1019 268 Q 1021 262 1015 264 Z " /><path fill="rgb(0,19,44)" stroke="rgb(0,19,44)" stroke-width="1" opacity="0.9450980392156862" d="M 1073.5 226 Q 1090.5 224.5 1096 234.5 L 1097.5 237 L 1101 234.5 L 1105.5 229 Q 1111.4 224.4 1123.5 226 Q 1132.4 227.6 1136 234.5 L 1140 244.5 L 1140 295 L 1127.5 295 L 1126 293.5 L 1126 248.5 L 1120.5 239 Q 1117 236.5 1109.5 238 L 1102 244.5 L 1100 250.5 L 1100 295 L 1087.5 295 L 1087 294.5 L 1087 251.5 L 1084 242.5 L 1080.5 239 Q 1077.3 236.7 1070.5 238 L 1064 242.5 L 1061 248.5 L 1061 293.5 L 1059.5 295 L 1047.5 295 L 1047 294.5 L 1047 228.5 L 1048.5 227 L 1057.5 227 L 1060.5 234 Q 1065.4 228.4 1073.5 226 Z " /><path fill="rgb(0,19,44)" stroke="rgb(0,19,44)" stroke-width="1" opacity="0.9450980392156862" d="M 693.5 227 L 704.5 227 L 706 228.5 L 719 266.5 L 724.5 278 L 741 230.5 L 743.5 227 L 754.5 227 L 756 228.5 L 730 302.5 L 722.5 312 L 717.5 314 L 703 314 L 703 303 L 711.5 303 L 718 298.5 L 719 293 L 715 291.5 L 692 228.5 L 693.5 227 Z " /><path fill="rgb(0,19,44)" stroke="rgb(0,19,44)" stroke-width="1" opacity="0.9450980392156862" d="M 869.5 227 L 879.5 227 L 881 228.5 Q 878.9 234.3 883.5 233 Q 889.2 225.5 903 227 L 903 239 L 891.5 239 L 884 244.5 L 882 249.5 L 882 293.5 L 880.5 295 L 868.5 295 L 868 294.5 L 868 228.5 L 869.5 227 Z " /><path fill="rgb(0,0,0)" stroke="rgb(0,0,0)" stroke-width="1" opacity="0" d="M 0 0 L 1500 0 L 1500 500 L 0 500 L 0 0 Z M 397 182 L 397 187 L 399 188 L 414 189 L 415 190 L 422 190 L 423 191 L 440 193 L 455 198 L 474 209 Q 486 217 489 235 Q 490 251 483 259 Q 472 275 449 280 L 433 279 L 419 272 L 415 272 Q 414 277 418 280 Q 427 290 440 297 L 456 303 L 467 304 L 468 305 Q 488 306 502 300 Q 515 295 525 286 L 535 275 L 535 185 L 534 184 L 534 182 L 397 182 Z M 410 196 Q 377 203 360 225 L 360 318 L 362 319 L 496 319 L 497 318 Q 499 319 498 315 L 494 312 L 470 310 L 454 307 Q 435 302 422 292 L 409 278 L 406 269 Q 404 250 412 242 Q 423 227 443 221 L 460 221 Q 470 223 477 229 L 480 228 L 476 221 Q 465 208 450 201 L 431 196 L 410 196 Z M 558 205 L 558 295 L 572 295 L 572 261 L 601 261 L 615 255 L 622 247 L 625 235 L 624 225 L 620 217 L 611 208 L 601 205 L 558 205 Z M 829 212 L 827 214 L 827 227 L 819 227 L 817 229 L 817 238 L 819 239 L 827 239 L 827 278 L 831 289 L 837 293 L 844 295 L 859 295 L 859 285 L 858 283 L 846 283 L 843 282 L 841 276 L 841 241 L 843 239 L 859 239 L 859 227 L 841 227 L 841 212 L 829 212 Z M 652 226 L 640 231 Q 631 236 630 248 L 643 249 L 646 243 L 649 240 L 657 237 L 667 239 Q 673 243 673 253 L 646 258 L 635 263 Q 630 267 628 274 Q 627 283 631 288 Q 636 294 646 296 L 660 296 Q 668 294 673 288 L 681 294 L 693 295 L 694 294 L 694 286 L 687 283 L 687 250 L 685 242 L 681 235 L 670 227 L 652 226 Z M 778 226 L 766 231 Q 760 235 758 242 Q 756 253 761 258 L 772 264 L 791 268 L 798 271 L 800 275 L 799 281 L 790 285 Q 779 285 774 281 L 771 273 L 758 273 L 756 275 L 760 286 Q 766 294 779 296 Q 798 299 808 291 L 814 283 Q 816 272 812 268 L 805 261 Q 796 257 784 256 L 777 253 L 772 248 L 773 243 L 780 238 Q 789 236 794 240 Q 798 243 799 249 L 813 248 Q 813 241 809 237 Q 801 224 778 226 Z M 930 226 L 917 232 Q 910 237 907 245 L 904 258 Q 903 275 911 285 Q 917 293 929 296 L 945 296 L 957 290 Q 963 285 966 277 L 965 275 L 953 274 L 951 277 L 942 284 Q 930 286 926 281 L 920 273 L 919 267 L 921 265 L 967 265 Q 968 247 960 237 Q 952 224 930 226 Z M 998 226 Q 988 228 983 233 Q 977 238 975 247 L 977 248 L 989 249 L 992 243 Q 995 238 1002 237 L 1007 237 L 1013 239 Q 1019 242 1018 253 L 992 258 L 982 262 Q 976 265 974 273 Q 973 283 977 288 Q 981 294 991 296 Q 1011 299 1018 288 L 1020 288 Q 1023 293 1030 295 L 1039 295 L 1039 284 L 1035 284 L 1033 283 L 1033 255 L 1032 254 L 1032 246 L 1028 237 Q 1020 224 998 226 Z M 1074 226 Q 1065 228 1061 234 L 1058 227 L 1049 227 L 1047 229 L 1047 295 L 1048 295 L 1060 295 L 1061 294 L 1061 249 L 1064 243 L 1071 238 Q 1077 237 1081 239 L 1084 243 L 1087 252 L 1087 295 L 1088 295 L 1100 295 L 1100 251 L 1102 245 L 1110 238 Q 1117 237 1121 239 L 1126 249 L 1126 294 L 1128 295 L 1140 295 L 1140 245 L 1136 235 Q 1132 228 1124 226 Q 1111 224 1106 229 L 1101 235 L 1098 237 L 1096 235 Q 1090 225 1074 226 Z M 694 227 L 692 229 L 715 292 L 719 293 L 718 299 L 712 303 L 703 303 L 703 314 L 718 314 L 723 312 L 730 303 L 756 229 L 755 227 L 744 227 L 741 231 L 725 278 L 719 267 L 706 229 L 705 227 L 694 227 Z M 870 227 L 868 229 L 868 295 L 869 295 L 881 295 L 882 294 L 882 250 L 884 245 L 892 239 L 903 239 L 903 227 Q 889 226 884 233 Q 879 234 881 229 L 880 227 L 870 227 Z " /><path fill="rgb(0,0,0)" stroke="rgb(0,0,0)" stroke-width="1" opacity="0" d="M 572 218 L 598.5 218 Q 605 219.5 608 224.5 Q 610.9 228.1 610 235.5 Q 608.9 242.9 603.5 246 L 598.5 248 L 572 248 L 572 218 Z " /><path fill="rgb(0,0,0)" stroke="rgb(0,0,0)" stroke-width="1" opacity="0" d="M 932.5 238 Q 944 236.5 948 242.5 Q 952.8 246.8 952 255 L 920.5 255 L 919 253.5 Q 920.8 244.3 927.5 240 L 932.5 238 Z " /><path fill="rgb(0,0,0)" stroke="rgb(0,0,0)" stroke-width="1" opacity="0" d="M 668.5 264 Q 675.7 261.7 673 269.5 Q 671.8 277.8 666.5 282 L 661.5 285 L 653.5 286 L 644 281.5 L 643 273.5 L 646.5 269 L 668.5 264 Z " /><path fill="rgb(0,0,0)" stroke="rgb(0,0,0)" stroke-width="1" opacity="0" d="M 1014.5 264 Q 1020.8 261.8 1019 267.5 L 1016 277.5 L 1009.5 284 L 999.5 286 L 992.5 284 L 989 280.5 L 988 275.5 L 992.5 269 L 1014.5 264 Z " /></svg>